<svg width="104" height="104" viewBox="0 0 104 104" fill="none" xmlns="http://www.w3.org/2000/svg">
<rect width="104" height="104" fill="#1BF2AD"/>
<path d="M40.7004 66.504C32.5944 66.504 25.7484 61.128 25.7484 51.468C25.7484 41.85 32.5944 36.516 40.7004 36.516C48.7224 36.516 55.6104 41.85 55.6104 51.468C55.6104 61.128 48.7224 66.504 40.7004 66.504ZM40.7004 60.918C45.4464 60.918 49.2684 57.264 49.2684 51.468C49.2684 45.714 45.4464 42.102 40.7004 42.102C35.8704 42.102 32.0484 45.714 32.0484 51.468C32.0484 57.264 35.8704 60.918 40.7004 60.918ZM75.519 58.608L79.677 61.38C78.081 64.53 74.763 66.504 70.227 66.504C63.759 66.504 58.677 62.22 58.677 54.912C58.677 47.688 63.717 43.446 70.227 43.446C74.511 43.446 77.745 45.126 79.467 47.814L75.477 51.384C74.763 50.04 73.251 48.654 70.647 48.654C67.497 48.654 64.725 50.754 64.725 54.912C64.725 59.154 67.497 61.212 70.605 61.212C73.125 61.212 74.805 59.994 75.519 58.608Z" fill="black"/>
</svg>
