<svg width="104" height="104" viewBox="0 0 104 104" fill="none" xmlns="http://www.w3.org/2000/svg">
<rect width="104" height="104" fill="#5579E7"/>
<path d="M42.3932 37.02C47.4332 37.02 53.8592 38.658 53.8592 46.974C53.8592 55.29 47.4332 57.18 42.3932 57.18H38.1932V66H32.3132V37.02H42.3932ZM38.1932 52.182H41.9312C45.4172 52.182 47.4332 50.922 47.4332 47.226C47.4332 43.614 45.4172 42.438 41.9312 42.438H38.1932V52.182ZM55.6691 63.606L57.9791 59.154C59.6591 60.498 62.2211 61.8 64.9511 61.8C66.8411 61.8 68.1011 61.044 68.0591 59.868C67.8071 56.214 56.7611 58.356 56.7611 50.46C56.7611 45.966 60.1631 43.446 65.4971 43.446C68.8151 43.446 71.1671 44.286 73.4771 46.05L70.6631 50.04C68.9831 48.612 66.9671 48.066 65.4551 48.066C63.6491 48.066 62.6831 48.864 62.6831 49.872C62.6831 53.316 74.0651 51.426 74.0651 59.238C74.0651 63.564 70.6211 66.504 64.4891 66.504C60.1211 66.504 57.3491 65.034 55.6691 63.606Z" fill="black"/>
</svg>
