<svg width="104" height="104" viewBox="0 0 104 104" fill="none" xmlns="http://www.w3.org/2000/svg">
<rect width="104" height="104" fill="#88B7E6"/>
<path d="M28.2081 62.724L30.8121 58.062C32.8281 59.91 36.0201 61.254 39.0441 61.254C41.8581 61.254 43.5801 59.994 43.5801 58.104C43.5801 52.812 29.9721 55.29 29.8041 45.294C29.6781 39.792 33.7521 36.516 40.0941 36.516C43.8741 36.516 46.5621 37.524 49.0401 39.498L46.3521 44.412C44.4621 42.648 42.1941 41.85 40.0941 41.85C37.4901 41.85 36.0621 43.068 36.0621 44.748C36.0621 49.83 49.8382 47.478 49.8382 57.222C49.8382 62.556 45.8481 66.462 38.7081 66.462C33.6681 66.462 30.2661 64.656 28.2081 62.724ZM68.0022 56.046V43.95H73.9242V66H68.3382V62.682C66.6582 65.244 63.8862 66.504 60.9462 66.504C56.1582 66.504 53.7222 63.27 53.7222 58.818V43.95H59.6022V57.054C59.6022 59.91 60.9042 61.464 63.3822 61.464C66.1962 61.464 68.0022 59.406 68.0022 56.046Z" fill="black"/>
</svg>
